{"accessors" : [{"bufferView" : 0, "byteOffset" : 0, "componentType" : 5123, "count" : 23526, "type" : "SCALAR", "max" : [4311], "min" : [0]}, {"bufferView" : 1, "byteOffset" : 0, "componentType" : 5126, "count" : 4312, "type" : "VEC3", "max" : [3, 3, 24], "min" : [-3, -3, 0], "name" : "POSITION"}, {"bufferView" : 1, "byteOffset" : 12, "componentType" : 5126, "count" : 4312, "type" : "VEC2", "max" : [16.595426559448242, 10.801769256591797], "min" : [-19.950634002685547, -8.801769256591797], "name" : "TEXCOORD_0"}, {"bufferView" : 1, "byteOffset" : 20, "componentType" : 5126, "count" : 4312, "type" : "VEC3", "max" : [1.0000044107437134, 1.0000044107437134, 1.0000044107437134], "min" : [-1.0000044107437134, -1.0000044107437134, -1.0000044107437134], "name" : "NORMAL"}], "asset" : {"generator" : "Aspose.3D 24.6.0", "version" : "2.0"}, "buffers" : [{"uri" : "buffer.bin", "byteLength" : 185044}], "bufferViews" : [{"buffer" : 0, "byteOffset" : 0, "byteLength" : 47052, "target" : 34963}, {"buffer" : 0, "byteOffset" : 47056, "byteLength" : 137984, "byteStride" : 32, "target" : 34962}], "meshes" : [{"primitives" : [{"attributes" : {"POSITION" : 1, "TEXCOORD_0" : 2, "NORMAL" : 3}, "indices" : 0, "mode" : 4}], "name" : ""}], "nodes" : [{"mesh" : 0, "name" : "Body1"}], "scene" : 0, "scenes" : [{"nodes" : [0]}]}